# xmcd
#
# Track frame offsets: 
#        150
#        14862
#        45122
#        60087
#        75310
#        102290
#        117337
#        162080
#        174652
#        203950
#        220720
#        232930
#        246782
#
# Disc length: 3597 seconds
#
# Revision: 1
# Processed by: cddbd v1.5.2PL0 Copyright (c) Steve Scherf et al.
# Submitted via: ExactAudioCopy v0.99pb5
#
DISCID=9a0e0b0d
DTITLE=Afro-Latin Jazz Orchestra - Una Noche Inolvidable
DYEAR=1900
DGENRE=Salsa
TTITLE0=Havana Special
TTITLE1=Buscando La Melodia
TTITLE2=Somos Novios
TTITLE3=Estoy Como Nunca
TTITLE4=Volver A Los 17
TTITLE5=Encantado De La Vida
TTITLE6=Ensename Tu Y Piensalo Bien
TTITLE7=Pianarabatibiri
TTITLE8=Corazon Rebelde
TTITLE9=La Ley Del Guaganco
TTITLE10=Mi Amor Fugaz
TTITLE11=Don Fulano
TTITLE12=Avisale A Mi Contrario
EXTD=
EXTT0=
EXTT1=
EXTT2=
EXTT3=
EXTT4=
EXTT5=
EXTT6=
EXTT7=
EXTT8=
EXTT9=
EXTT10=
EXTT11=
EXTT12=
PLAYORDER=
